<svg xmlns="http://www.w3.org/2000/svg" version="1.1" xmlns:xlink="http://www.w3.org/1999/xlink" xmlns:svgjs="http://svgjs.com/svgjs" width="512" height="512" x="0" y="0" viewBox="0 0 512 512" style="enable-background:new 0 0 512 512" xml:space="preserve" class=""><g>
<g>
	<path style="" d="M261.065,174.14l-25.386,21.507l-57.51-67.883c-4.32-5.1-3.689-12.736,1.411-17.056l6.919-5.862
		c5.1-4.32,12.736-3.689,17.056,1.411L261.065,174.14z" fill="#ff4c4c" data-original="#ff4c4c"></path>
	<path style="" d="M399.797,174.14l25.386,21.507l57.51-67.883c4.32-5.1,3.689-12.736-1.411-17.056l-6.919-5.862
		c-5.1-4.32-12.736-3.689-17.056,1.411L399.797,174.14z" fill="#ff4c4c" data-original="#ff4c4c"></path>
</g>
<rect x="314.17" y="68.749" style="" width="32.516" height="68.788" fill="#ccdfed" data-original="#ccdfed"></rect>
<circle style="" cx="330.43" cy="291.928" r="181.57" fill="#3d6687" data-original="#3d6687" class=""></circle>
<path style="" d="M330.431,110.357c-9.594,0-19.012,0.75-28.204,2.184c86.883,13.551,153.365,88.701,153.365,179.385
	S389.11,457.76,302.227,471.311c9.192,1.434,18.61,2.184,28.204,2.184C430.709,473.496,512,392.203,512,291.927
	S430.709,110.357,330.431,110.357z" fill="#0c5177" data-original="#0c5177"></path>
<circle style="" cx="330.43" cy="291.928" r="154.39" fill="#e1effb" data-original="#e1effb"></circle>
<path style="" d="M330.431,137.533c-9.711,0-19.209,0.906-28.423,2.621c71.691,13.343,125.971,76.215,125.971,151.773
	c0,75.559-54.28,138.431-125.971,151.773c9.214,1.715,18.712,2.621,28.423,2.621c85.269,0,154.394-69.124,154.394-154.394
	S415.7,137.533,330.431,137.533z" fill="#ccdfed" data-original="#ccdfed"></path>
<path style="" d="M375.786,78.531h-90.71c-4.643,0-8.407-3.764-8.407-8.407V46.909c0-4.643,3.764-8.407,8.407-8.407
	h90.71c4.643,0,8.407,3.764,8.407,8.407v23.217C384.193,74.768,380.429,78.531,375.786,78.531z" fill="#ff4c4c" data-original="#ff4c4c"></path>
<circle style="" cx="330.43" cy="291.928" r="23.618" fill="#3d6687" data-original="#3d6687" class=""></circle>
<path style="" d="M333.714,166.767c-1.795-0.046-3.283,1.382-3.283,3.177v61.094c0,2.407,1.814,4.446,4.21,4.68
	c27.47,2.689,49.309,24.528,51.998,51.998c0.235,2.396,2.273,4.21,4.68,4.21h61.094c1.795,0,3.223-1.488,3.177-3.283
	C453.877,222.105,400.252,168.48,333.714,166.767z" fill="#ff6d3a" data-original="#ff6d3a"></path>
<g>
	<path style="" d="M322.728,398.402v18.725c0,4.255,3.448,7.703,7.703,7.703s7.703-3.448,7.703-7.703v-18.725
		c0-4.255-3.448-7.703-7.703-7.703S322.728,394.148,322.728,398.402z" fill="#ff4c4c" data-original="#ff4c4c"></path>
	<path style="" d="M231.657,291.927c0-4.255-3.448-7.703-7.703-7.703H205.23c-4.255,0-7.703,3.448-7.703,7.703
		s3.448,7.703,7.703,7.703h18.724C228.208,299.63,231.657,296.182,231.657,291.927z" fill="#ff4c4c" data-original="#ff4c4c"></path>
</g>
<g>
	<path style="" d="M162.041,190.212h-61.43c-4.204,0-7.611-3.407-7.611-7.611s3.407-7.611,7.611-7.611h61.43
		c4.204,0,7.611,3.407,7.611,7.611S166.245,190.212,162.041,190.212z" fill="#0c5177" data-original="#0c5177"></path>
	<path style="" d="M131.325,286.285H97.258c-4.204,0-7.611-3.407-7.611-7.611s3.407-7.612,7.611-7.612h34.067
		c4.204,0,7.611,3.407,7.611,7.612S135.529,286.285,131.325,286.285z" fill="#0c5177" data-original="#0c5177"></path>
	<path style="" d="M148.862,382.359h-29.708c-4.204,0-7.611-3.407-7.611-7.612s3.407-7.611,7.611-7.611h29.708
		c4.204,0,7.611,3.407,7.611,7.611S153.066,382.359,148.862,382.359z" fill="#0c5177" data-original="#0c5177"></path>
	<path style="" d="M138.607,238.249H46.514c-4.204,0-7.611-3.407-7.611-7.611s3.407-7.611,7.611-7.611h92.092
		c4.204,0,7.611,3.407,7.611,7.611S142.811,238.249,138.607,238.249z" fill="#0c5177" data-original="#0c5177"></path>
	<path style="" d="M133.587,334.323H7.611c-4.204,0-7.611-3.407-7.611-7.611s3.407-7.612,7.611-7.612h125.975
		c4.204,0,7.611,3.407,7.611,7.612S137.791,334.323,133.587,334.323z" fill="#0c5177" data-original="#0c5177"></path>
	<path style="" d="M176.037,425.66H80.324c-4.204,0-7.611-3.407-7.611-7.612s3.407-7.612,7.611-7.612h95.713
		c4.204,0,7.611,3.407,7.611,7.612S180.241,425.66,176.037,425.66z" fill="#0c5177" data-original="#0c5177"></path>
</g>
<g>
</g>
<g>
</g>
<g>
</g>
<g>
</g>
<g>
</g>
<g>
</g>
<g>
</g>
<g>
</g>
<g>
</g>
<g>
</g>
<g>
</g>
<g>
</g>
<g>
</g>
<g>
</g>
<g>
</g>
</g></svg>